<?xml version="1.0" encoding="UTF-8" standalone="no"?>
<!DOCTYPE svg PUBLIC "-//W3C//DTD SVG 1.1//EN"
 "http://www.w3.org/Graphics/SVG/1.1/DTD/svg11.dtd">
<!-- Generated by graphviz version 2.48.0 (20210717.1556)
 -->
<!-- Title: DUCK Pages: 1 -->
<svg width="440pt" height="360pt"
 viewBox="0.00 0.00 440.40 360.00" xmlns="http://www.w3.org/2000/svg" xmlns:xlink="http://www.w3.org/1999/xlink">
<g id="graph0" class="graph" transform="scale(0.6 0.6) rotate(0) translate(4 596)">
<title>DUCK</title>
<polygon fill="white" stroke="transparent" points="-4,4 -4,-596 730,-596 730,4 -4,4"/>
<!-- Grandpa Duck -->
<g id="node1" class="node">
<title>Grandpa Duck</title>
<polygon fill="none" stroke="black" points="100.5,-325 1.5,-325 1.5,-289 100.5,-289 100.5,-325"/>
<text text-anchor="middle" x="51" y="-303.3" font-family="Times New Roman,serif" font-size="14.00">Grandpa Duck</text>
</g>
<!-- Louis Von Drake Duck -->
<g id="node2" class="node">
<title>Louis Von Drake Duck</title>
<polygon fill="none" stroke="black" points="327.5,-592 181.5,-592 181.5,-556 327.5,-556 327.5,-592"/>
<text text-anchor="middle" x="254.5" y="-570.3" font-family="Times New Roman,serif" font-size="14.00">Louis Von Drake Duck</text>
</g>
<!-- Grandpa Duck&#45;&gt;Louis Von Drake Duck -->
<g id="edge1" class="edge">
<title>Grandpa Duck&#45;&gt;Louis Von Drake Duck</title>
<path fill="none" stroke="black" d="M72.28,-325.22C82.66,-335.61 94.62,-349.44 102,-364 118.68,-396.89 100.96,-413.42 120,-445 132.05,-464.98 147.56,-459.26 160,-479 176.67,-505.45 156.85,-523.98 178,-547 178.78,-547.85 179.58,-548.66 180.41,-549.46"/>
<polygon fill="black" stroke="black" points="178.52,-552.42 188.52,-555.93 182.89,-546.95 178.52,-552.42"/>
<text text-anchor="middle" x="140" y="-482.8" font-family="Times New Roman,serif" font-size="14.00">father</text>
</g>
<!-- Hortense Duck McDuck -->
<g id="node3" class="node">
<title>Hortense Duck McDuck</title>
<polygon fill="none" stroke="black" points="331,-234 178,-234 178,-198 331,-198 331,-234"/>
<text text-anchor="middle" x="254.5" y="-212.3" font-family="Times New Roman,serif" font-size="14.00">Hortense Duck McDuck</text>
</g>
<!-- Grandpa Duck&#45;&gt;Hortense Duck McDuck -->
<g id="edge2" class="edge">
<title>Grandpa Duck&#45;&gt;Hortense Duck McDuck</title>
<path fill="none" stroke="black" d="M55.47,-288.93C62.17,-259.76 79.89,-203.11 120,-179 150.88,-160.44 191.33,-176.27 219.57,-192.59"/>
<polygon fill="black" stroke="black" points="217.92,-195.69 228.29,-197.87 221.55,-189.7 217.92,-195.69"/>
<text text-anchor="middle" x="140" y="-182.8" font-family="Times New Roman,serif" font-size="14.00">father</text>
</g>
<!-- Jira Gander McDuck -->
<g id="node14" class="node">
<title>Jira Gander McDuck</title>
<polygon fill="none" stroke="black" points="321,-538 188,-538 188,-502 321,-502 321,-538"/>
<text text-anchor="middle" x="254.5" y="-516.3" font-family="Times New Roman,serif" font-size="14.00">Jira Gander McDuck</text>
</g>
<!-- Grandpa Duck&#45;&gt;Jira Gander McDuck -->
<g id="edge16" class="edge">
<title>Grandpa Duck&#45;&gt;Jira Gander McDuck</title>
<path fill="none" stroke="black" d="M67.85,-325.05C86.97,-346.79 116.96,-380.68 120,-383 135.8,-395.06 147.94,-387.2 160,-403 184.76,-435.42 151.34,-462.13 178,-493 178.73,-493.84 179.48,-494.66 180.27,-495.45"/>
<polygon fill="black" stroke="black" points="178.03,-498.14 187.93,-501.9 182.54,-492.79 178.03,-498.14"/>
<text text-anchor="middle" x="140" y="-406.8" font-family="Times New Roman,serif" font-size="14.00">father</text>
</g>
<!-- Scrooge McDuck -->
<g id="node18" class="node">
<title>Scrooge McDuck</title>
<polygon fill="none" stroke="black" points="312.5,-291 196.5,-291 196.5,-255 312.5,-255 312.5,-291"/>
<text text-anchor="middle" x="254.5" y="-269.3" font-family="Times New Roman,serif" font-size="14.00">Scrooge McDuck</text>
</g>
<!-- Grandpa Duck&#45;&gt;Scrooge McDuck -->
<g id="edge36" class="edge">
<title>Grandpa Duck&#45;&gt;Scrooge McDuck</title>
<path fill="none" stroke="black" d="M69.09,-288.76C81.8,-276.6 100.29,-261.67 120,-255 142.38,-247.42 167.9,-248.63 190.58,-252.87"/>
<polygon fill="black" stroke="black" points="189.94,-256.31 200.45,-254.93 191.37,-249.46 189.94,-256.31"/>
<text text-anchor="middle" x="140" y="-258.8" font-family="Times New Roman,serif" font-size="14.00">father</text>
</g>
<!-- Quackmore Duck -->
<g id="node19" class="node">
<title>Quackmore Duck</title>
<polygon fill="none" stroke="black" points="312.5,-348 196.5,-348 196.5,-312 312.5,-312 312.5,-348"/>
<text text-anchor="middle" x="254.5" y="-326.3" font-family="Times New Roman,serif" font-size="14.00">Quackmore Duck</text>
</g>
<!-- Grandpa Duck&#45;&gt;Quackmore Duck -->
<g id="edge27" class="edge">
<title>Grandpa Duck&#45;&gt;Quackmore Duck</title>
<path fill="none" stroke="black" d="M100.52,-312.54C126.24,-315.47 158.24,-319.13 186.31,-322.33"/>
<polygon fill="black" stroke="black" points="186.13,-325.83 196.46,-323.49 186.92,-318.88 186.13,-325.83"/>
<text text-anchor="middle" x="140" y="-322.8" font-family="Times New Roman,serif" font-size="14.00">father</text>
</g>
<!-- Fanny Goose Duck -->
<g id="node21" class="node">
<title>Fanny Goose Duck</title>
<polygon fill="none" stroke="black" points="317.5,-36 191.5,-36 191.5,0 317.5,0 317.5,-36"/>
<text text-anchor="middle" x="254.5" y="-14.3" font-family="Times New Roman,serif" font-size="14.00">Fanny Goose Duck</text>
</g>
<!-- Grandpa Duck&#45;&gt;Fanny Goose Duck -->
<g id="edge18" class="edge">
<title>Grandpa Duck&#45;&gt;Fanny Goose Duck</title>
<path fill="none" stroke="black" d="M55.42,-288.99C65.36,-241.65 98.74,-112.68 178,-45 179.51,-43.71 181.08,-42.48 182.71,-41.31"/>
<polygon fill="black" stroke="black" points="184.66,-44.22 191.25,-35.92 180.92,-38.3 184.66,-44.22"/>
<text text-anchor="middle" x="140" y="-114.8" font-family="Times New Roman,serif" font-size="14.00">father</text>
</g>
<!-- Dumbella Duck Duck -->
<g id="node6" class="node">
<title>Dumbella Duck Duck</title>
<polygon fill="none" stroke="black" points="552.5,-302 415.5,-302 415.5,-266 552.5,-266 552.5,-302"/>
<text text-anchor="middle" x="484" y="-280.3" font-family="Times New Roman,serif" font-size="14.00">Dumbella Duck Duck</text>
</g>
<!-- Hortense Duck McDuck&#45;&gt;Dumbella Duck Duck -->
<g id="edge33" class="edge">
<title>Hortense Duck McDuck&#45;&gt;Dumbella Duck Duck</title>
<path fill="none" stroke="black" d="M331.27,-202.67C351.3,-202.72 372.04,-206.3 389,-217 404.47,-226.76 393.58,-241.58 407,-254 409.58,-256.39 412.36,-258.59 415.3,-260.63"/>
<polygon fill="black" stroke="black" points="413.56,-263.66 423.91,-265.93 417.23,-257.7 413.56,-263.66"/>
<text text-anchor="middle" x="369" y="-220.8" font-family="Times New Roman,serif" font-size="14.00">mother</text>
</g>
<!-- Helena spouch Duck -->
<g id="node8" class="node">
<title>Helena spouch Duck</title>
<polygon fill="none" stroke="black" points="550.5,-188 417.5,-188 417.5,-152 550.5,-152 550.5,-188"/>
<text text-anchor="middle" x="484" y="-166.3" font-family="Times New Roman,serif" font-size="14.00">Helena spouch Duck</text>
</g>
<!-- Hortense Duck McDuck&#45;&gt;Helena spouch Duck -->
<g id="edge5" class="edge">
<title>Hortense Duck McDuck&#45;&gt;Helena spouch Duck</title>
<path fill="none" stroke="black" d="M265.3,-197.99C279.84,-173.4 309.69,-130.41 349,-113 386.08,-96.58 429.3,-123.12 456.41,-145.22"/>
<polygon fill="black" stroke="black" points="454.39,-148.1 464.28,-151.89 458.91,-142.76 454.39,-148.1"/>
<text text-anchor="middle" x="369" y="-116.8" font-family="Times New Roman,serif" font-size="14.00">mother</text>
</g>
<!-- Dux Duck -->
<g id="node11" class="node">
<title>Dux Duck</title>
<polygon fill="none" stroke="black" points="521,-408 447,-408 447,-372 521,-372 521,-408"/>
<text text-anchor="middle" x="484" y="-386.3" font-family="Times New Roman,serif" font-size="14.00">Dux Duck</text>
</g>
<!-- Hortense Duck McDuck&#45;&gt;Dux Duck -->
<g id="edge30" class="edge">
<title>Hortense Duck McDuck&#45;&gt;Dux Duck</title>
<path fill="none" stroke="black" d="M311.43,-234.11C318.35,-237.51 325.06,-241.46 331,-246 341.59,-254.1 338.68,-261.56 349,-270 364.24,-282.46 373.5,-276.87 389,-289 398.95,-296.79 398.61,-301.55 407,-311 423.24,-329.3 442.34,-349.15 457.33,-364.37"/>
<polygon fill="black" stroke="black" points="455.24,-367.23 464.76,-371.88 460.21,-362.31 455.24,-367.23"/>
<text text-anchor="middle" x="369" y="-292.8" font-family="Times New Roman,serif" font-size="14.00">mother</text>
</g>
<!-- Daisy Duck -->
<g id="node15" class="node">
<title>Daisy Duck</title>
<polygon fill="none" stroke="black" points="525,-245 443,-245 443,-209 525,-209 525,-245"/>
<text text-anchor="middle" x="484" y="-223.3" font-family="Times New Roman,serif" font-size="14.00">Daisy Duck</text>
</g>
<!-- Hortense Duck McDuck&#45;&gt;Daisy Duck -->
<g id="edge11" class="edge">
<title>Hortense Duck McDuck&#45;&gt;Daisy Duck</title>
<path fill="none" stroke="black" d="M269.41,-197.68C294.42,-166.97 348.18,-111.25 389,-141 410.13,-156.4 389.12,-177.92 407,-197 414.2,-204.69 423.62,-210.44 433.37,-214.73"/>
<polygon fill="black" stroke="black" points="432.16,-218.02 442.75,-218.42 434.72,-211.5 432.16,-218.02"/>
<text text-anchor="middle" x="369" y="-144.8" font-family="Times New Roman,serif" font-size="14.00">mother</text>
</g>
<!-- Donald Fauntleroy Duck -->
<g id="node22" class="node">
<title>Donald Fauntleroy Duck</title>
<polygon fill="none" stroke="black" points="561,-462 407,-462 407,-426 561,-426 561,-462"/>
<text text-anchor="middle" x="484" y="-440.3" font-family="Times New Roman,serif" font-size="14.00">Donald Fauntleroy Duck</text>
</g>
<!-- Hortense Duck McDuck&#45;&gt;Donald Fauntleroy Duck -->
<g id="edge22" class="edge">
<title>Hortense Duck McDuck&#45;&gt;Donald Fauntleroy Duck</title>
<path fill="none" stroke="black" d="M317.24,-234.09C322.39,-237.42 327.11,-241.35 331,-246 356.63,-276.61 327.91,-300.11 349,-334 360.88,-353.1 375.89,-346.73 389,-365 403.26,-384.87 389.78,-399.64 407,-417 407.94,-417.95 408.92,-418.87 409.93,-419.75"/>
<polygon fill="black" stroke="black" points="408.12,-422.77 418.23,-425.93 412.3,-417.15 408.12,-422.77"/>
<text text-anchor="middle" x="369" y="-368.8" font-family="Times New Roman,serif" font-size="14.00">mother</text>
</g>
<!-- Poopy Goose -->
<g id="node4" class="node">
<title>Poopy Goose</title>
<polygon fill="none" stroke="black" points="302,-90 207,-90 207,-54 302,-54 302,-90"/>
<text text-anchor="middle" x="254.5" y="-68.3" font-family="Times New Roman,serif" font-size="14.00">Poopy Goose</text>
</g>
<!-- Gus Goose -->
<g id="node5" class="node">
<title>Gus Goose</title>
<polygon fill="none" stroke="black" points="524.5,-36 443.5,-36 443.5,0 524.5,0 524.5,-36"/>
<text text-anchor="middle" x="484" y="-14.3" font-family="Times New Roman,serif" font-size="14.00">Gus Goose</text>
</g>
<!-- Poopy Goose&#45;&gt;Gus Goose -->
<g id="edge3" class="edge">
<title>Poopy Goose&#45;&gt;Gus Goose</title>
<path fill="none" stroke="black" d="M302.09,-60.94C340.27,-51.88 394.19,-39.08 433.22,-29.82"/>
<polygon fill="black" stroke="black" points="434.39,-33.14 443.31,-27.42 432.77,-26.33 434.39,-33.14"/>
<text text-anchor="middle" x="369" y="-51.8" font-family="Times New Roman,serif" font-size="14.00">father</text>
</g>
<!-- Louie Duck -->
<g id="node7" class="node">
<title>Louie Duck</title>
<polygon fill="none" stroke="black" points="722.5,-389 640.5,-389 640.5,-353 722.5,-353 722.5,-389"/>
<text text-anchor="middle" x="681.5" y="-367.3" font-family="Times New Roman,serif" font-size="14.00">Louie Duck</text>
</g>
<!-- Dumbella Duck Duck&#45;&gt;Louie Duck -->
<g id="edge4" class="edge">
<title>Dumbella Duck Duck&#45;&gt;Louie Duck</title>
<path fill="none" stroke="black" d="M512.99,-302.13C531.28,-313.45 555.95,-327.77 579,-338 595.42,-345.29 613.97,-351.79 630.67,-357.06"/>
<polygon fill="black" stroke="black" points="629.67,-360.41 640.26,-360.01 631.73,-353.72 629.67,-360.41"/>
<text text-anchor="middle" x="599" y="-355.8" font-family="Times New Roman,serif" font-size="14.00">mother</text>
</g>
<!-- Huey Duck -->
<g id="node10" class="node">
<title>Huey Duck</title>
<polygon fill="none" stroke="black" points="721.5,-334 641.5,-334 641.5,-298 721.5,-298 721.5,-334"/>
<text text-anchor="middle" x="681.5" y="-312.3" font-family="Times New Roman,serif" font-size="14.00">Huey Duck</text>
</g>
<!-- Dumbella Duck Duck&#45;&gt;Huey Duck -->
<g id="edge7" class="edge">
<title>Dumbella Duck Duck&#45;&gt;Huey Duck</title>
<path fill="none" stroke="black" d="M552.53,-278.52C574.03,-278.36 597.74,-279.86 619,-285 626.84,-286.9 634.83,-289.95 642.33,-293.41"/>
<polygon fill="black" stroke="black" points="641.02,-296.67 651.53,-297.97 644.12,-290.4 641.02,-296.67"/>
<text text-anchor="middle" x="599" y="-288.8" font-family="Times New Roman,serif" font-size="14.00">mother</text>
</g>
<!-- Dewey Duck -->
<g id="node12" class="node">
<title>Dewey Duck</title>
<polygon fill="none" stroke="black" points="726,-277 637,-277 637,-241 726,-241 726,-277"/>
<text text-anchor="middle" x="681.5" y="-255.3" font-family="Times New Roman,serif" font-size="14.00">Dewey Duck</text>
</g>
<!-- Dumbella Duck Duck&#45;&gt;Dewey Duck -->
<g id="edge23" class="edge">
<title>Dumbella Duck Duck&#45;&gt;Dewey Duck</title>
<path fill="none" stroke="black" d="M530.64,-265.98C554.42,-256.61 578.65,-247.07 579,-247 594.44,-244.07 611.36,-244.6 626.87,-246.56"/>
<polygon fill="black" stroke="black" points="626.43,-250.03 636.83,-248.02 627.45,-243.1 626.43,-250.03"/>
<text text-anchor="middle" x="599" y="-250.8" font-family="Times New Roman,serif" font-size="14.00">mother</text>
</g>
<!-- April -->
<g id="node9" class="node">
<title>April</title>
<polygon fill="none" stroke="black" points="708.5,-214 654.5,-214 654.5,-178 708.5,-178 708.5,-214"/>
<text text-anchor="middle" x="681.5" y="-192.3" font-family="Times New Roman,serif" font-size="14.00">April</text>
</g>
<!-- Helena spouch Duck&#45;&gt;April -->
<g id="edge6" class="edge">
<title>Helena spouch Duck&#45;&gt;April</title>
<path fill="none" stroke="black" d="M550.65,-181.78C560.15,-183.31 569.81,-184.77 579,-186 600.47,-188.88 624.6,-191.29 643.95,-193.03"/>
<polygon fill="black" stroke="black" points="643.89,-196.53 654.15,-193.92 644.5,-189.56 643.89,-196.53"/>
<text text-anchor="middle" x="599" y="-193.8" font-family="Times New Roman,serif" font-size="14.00">mother</text>
</g>
<!-- June -->
<g id="node17" class="node">
<title>June</title>
<polygon fill="none" stroke="black" points="708.5,-142 654.5,-142 654.5,-106 708.5,-106 708.5,-142"/>
<text text-anchor="middle" x="681.5" y="-120.3" font-family="Times New Roman,serif" font-size="14.00">June</text>
</g>
<!-- Helena spouch Duck&#45;&gt;June -->
<g id="edge20" class="edge">
<title>Helena spouch Duck&#45;&gt;June</title>
<path fill="none" stroke="black" d="M550.68,-162.02C572.62,-158.62 597.06,-154.01 619,-148 627.5,-145.67 636.44,-142.58 644.8,-139.38"/>
<polygon fill="black" stroke="black" points="646.26,-142.57 654.27,-135.63 643.68,-136.06 646.26,-142.57"/>
<text text-anchor="middle" x="599" y="-160.8" font-family="Times New Roman,serif" font-size="14.00">mother</text>
</g>
<!-- May -->
<g id="node20" class="node">
<title>May</title>
<polygon fill="none" stroke="black" points="708.5,-52 654.5,-52 654.5,-16 708.5,-16 708.5,-52"/>
<text text-anchor="middle" x="681.5" y="-30.3" font-family="Times New Roman,serif" font-size="14.00">May</text>
</g>
<!-- Helena spouch Duck&#45;&gt;May -->
<g id="edge17" class="edge">
<title>Helena spouch Duck&#45;&gt;May</title>
<path fill="none" stroke="black" d="M503.67,-151.81C521.87,-134.71 550.84,-109.09 579,-91 595.56,-80.36 601.71,-81.41 619,-72 627.75,-67.23 637,-61.77 645.58,-56.5"/>
<polygon fill="black" stroke="black" points="647.6,-59.36 654.24,-51.11 643.9,-53.42 647.6,-59.36"/>
<text text-anchor="middle" x="599" y="-94.8" font-family="Times New Roman,serif" font-size="14.00">mother</text>
</g>
<!-- Dux Duck&#45;&gt;Louie Duck -->
<g id="edge24" class="edge">
<title>Dux Duck&#45;&gt;Louie Duck</title>
<path fill="none" stroke="black" d="M521.15,-405.73C548.46,-415.41 586.65,-424.19 619,-414 631.23,-410.15 643.15,-402.9 653.19,-395.44"/>
<polygon fill="black" stroke="black" points="655.44,-398.12 661.14,-389.19 651.12,-392.61 655.44,-398.12"/>
<text text-anchor="middle" x="599" y="-421.8" font-family="Times New Roman,serif" font-size="14.00">father</text>
</g>
<!-- Dux Duck&#45;&gt;Huey Duck -->
<g id="edge10" class="edge">
<title>Dux Duck&#45;&gt;Huey Duck</title>
<path fill="none" stroke="black" d="M521.27,-394.8C550.07,-396.71 590.16,-394.94 619,-376 632.64,-367.04 625.81,-355.88 637,-344 638.04,-342.9 639.13,-341.82 640.26,-340.76"/>
<polygon fill="black" stroke="black" points="642.73,-343.27 648.2,-334.19 638.27,-337.87 642.73,-343.27"/>
<text text-anchor="middle" x="599" y="-393.8" font-family="Times New Roman,serif" font-size="14.00">father</text>
</g>
<!-- Dux Duck&#45;&gt;Dewey Duck -->
<g id="edge8" class="edge">
<title>Dux Duck&#45;&gt;Dewey Duck</title>
<path fill="none" stroke="black" d="M506.51,-371.74C525.01,-356.55 552.77,-334.91 579,-319 595.83,-308.79 601.88,-309.71 619,-300 624.51,-296.88 634.9,-290.08 645.59,-282.89"/>
<polygon fill="black" stroke="black" points="647.82,-285.61 654.15,-277.11 643.9,-279.81 647.82,-285.61"/>
<text text-anchor="middle" x="599" y="-322.8" font-family="Times New Roman,serif" font-size="14.00">father</text>
</g>
<!-- Grandma Duck -->
<g id="node13" class="node">
<title>Grandma Duck</title>
<polygon fill="none" stroke="black" points="102,-409 0,-409 0,-373 102,-373 102,-409"/>
<text text-anchor="middle" x="51" y="-387.3" font-family="Times New Roman,serif" font-size="14.00">Grandma Duck</text>
</g>
<!-- Grandma Duck&#45;&gt;Louis Von Drake Duck -->
<g id="edge21" class="edge">
<title>Grandma Duck&#45;&gt;Louis Von Drake Duck</title>
<path fill="none" stroke="black" d="M55.72,-409.12C62.84,-439.25 81.27,-499.64 120,-533 134.63,-545.6 153.07,-554.33 171.54,-560.37"/>
<polygon fill="black" stroke="black" points="170.59,-563.74 181.18,-563.3 172.62,-557.05 170.59,-563.74"/>
<text text-anchor="middle" x="140" y="-558.8" font-family="Times New Roman,serif" font-size="14.00">mother</text>
</g>
<!-- Grandma Duck&#45;&gt;Hortense Duck McDuck -->
<g id="edge13" class="edge">
<title>Grandma Duck&#45;&gt;Hortense Duck McDuck</title>
<path fill="none" stroke="black" d="M70.3,-372.81C80.44,-362.11 92.82,-347.97 102,-334 112.26,-318.38 107.7,-310.07 120,-296 133.96,-280.04 144.51,-284.48 160,-270 169.74,-260.89 167.41,-254.1 178,-246 181.34,-243.45 184.93,-241.08 188.66,-238.89"/>
<polygon fill="black" stroke="black" points="190.41,-241.92 197.57,-234.11 187.1,-235.75 190.41,-241.92"/>
<text text-anchor="middle" x="140" y="-299.8" font-family="Times New Roman,serif" font-size="14.00">mother</text>
</g>
<!-- Grandma Duck&#45;&gt;Jira Gander McDuck -->
<g id="edge9" class="edge">
<title>Grandma Duck&#45;&gt;Jira Gander McDuck</title>
<path fill="none" stroke="black" d="M58.14,-409.14C67.43,-433.59 87.5,-476.52 120,-498 136.93,-509.19 157.64,-515.33 177.65,-518.56"/>
<polygon fill="black" stroke="black" points="177.32,-522.05 187.71,-519.96 178.29,-515.12 177.32,-522.05"/>
<text text-anchor="middle" x="140" y="-517.8" font-family="Times New Roman,serif" font-size="14.00">mother</text>
</g>
<!-- Grandma Duck&#45;&gt;Scrooge McDuck -->
<g id="edge14" class="edge">
<title>Grandma Duck&#45;&gt;Scrooge McDuck</title>
<path fill="none" stroke="black" d="M102.14,-374.3C121.96,-365.81 143.83,-353.87 160,-338 172.48,-325.75 165.05,-314.76 178,-303 180.97,-300.3 184.21,-297.84 187.63,-295.58"/>
<polygon fill="black" stroke="black" points="189.59,-298.49 196.43,-290.4 186.03,-292.46 189.59,-298.49"/>
<text text-anchor="middle" x="140" y="-367.8" font-family="Times New Roman,serif" font-size="14.00">mother</text>
</g>
<!-- Grandma Duck&#45;&gt;Quackmore Duck -->
<g id="edge25" class="edge">
<title>Grandma Duck&#45;&gt;Quackmore Duck</title>
<path fill="none" stroke="black" d="M80.09,-409.23C102.22,-421.19 133.64,-432.79 160,-422 192.19,-408.82 219.25,-378.62 235.84,-356.4"/>
<polygon fill="black" stroke="black" points="238.87,-358.19 241.89,-348.03 233.19,-354.09 238.87,-358.19"/>
<text text-anchor="middle" x="140" y="-429.8" font-family="Times New Roman,serif" font-size="14.00">mother</text>
</g>
<!-- Grandma Duck&#45;&gt;Fanny Goose Duck -->
<g id="edge31" class="edge">
<title>Grandma Duck&#45;&gt;Fanny Goose Duck</title>
<path fill="none" stroke="black" d="M72.56,-372.91C83.01,-362.56 94.96,-348.73 102,-334 122.22,-291.67 97.32,-271.06 120,-230 131.56,-209.06 148.97,-215.22 160,-194 190.75,-134.81 136.38,-97.13 178,-45 179.63,-42.95 181.44,-41.06 183.37,-39.31"/>
<polygon fill="black" stroke="black" points="185.54,-42.06 191.43,-33.26 181.33,-36.47 185.54,-42.06"/>
<text text-anchor="middle" x="140" y="-233.8" font-family="Times New Roman,serif" font-size="14.00">mother</text>
</g>
<!-- Gladstone Gander -->
<g id="node24" class="node">
<title>Gladstone Gander</title>
<polygon fill="none" stroke="black" points="543.5,-527 424.5,-527 424.5,-491 543.5,-491 543.5,-527"/>
<text text-anchor="middle" x="484" y="-505.3" font-family="Times New Roman,serif" font-size="14.00">Gladstone Gander</text>
</g>
<!-- Jira Gander McDuck&#45;&gt;Gladstone Gander -->
<g id="edge38" class="edge">
<title>Jira Gander McDuck&#45;&gt;Gladstone Gander</title>
<path fill="none" stroke="black" d="M321.3,-516.82C350.41,-515.41 384.66,-513.76 414.12,-512.33"/>
<polygon fill="black" stroke="black" points="414.5,-515.82 424.32,-511.84 414.16,-508.82 414.5,-515.82"/>
<text text-anchor="middle" x="369" y="-518.8" font-family="Times New Roman,serif" font-size="14.00">mother</text>
</g>
<!-- Pepe -->
<g id="node16" class="node">
<title>Pepe</title>
<polygon fill="none" stroke="black" points="511,-90 457,-90 457,-54 511,-54 511,-90"/>
<text text-anchor="middle" x="484" y="-68.3" font-family="Times New Roman,serif" font-size="14.00">Pepe</text>
</g>
<!-- Pepe&#45;&gt;April -->
<g id="edge29" class="edge">
<title>Pepe&#45;&gt;April</title>
<path fill="none" stroke="black" d="M511.01,-82.28C547.35,-96.77 609.9,-122.17 619,-129 629.11,-136.58 628.6,-141.56 637,-151 642.81,-157.54 649.27,-164.41 655.4,-170.76"/>
<polygon fill="black" stroke="black" points="652.89,-173.21 662.37,-177.93 657.91,-168.33 652.89,-173.21"/>
<text text-anchor="middle" x="599" y="-132.8" font-family="Times New Roman,serif" font-size="14.00">father</text>
</g>
<!-- Pepe&#45;&gt;June -->
<g id="edge12" class="edge">
<title>Pepe&#45;&gt;June</title>
<path fill="none" stroke="black" d="M511.12,-61.51C539.02,-51.99 583.96,-41.6 619,-57 637.85,-65.28 653.45,-82.51 664.23,-97.43"/>
<polygon fill="black" stroke="black" points="661.46,-99.58 670,-105.85 667.24,-95.63 661.46,-99.58"/>
<text text-anchor="middle" x="599" y="-60.8" font-family="Times New Roman,serif" font-size="14.00">father</text>
</g>
<!-- Pepe&#45;&gt;May -->
<g id="edge26" class="edge">
<title>Pepe&#45;&gt;May</title>
<path fill="none" stroke="black" d="M511.25,-66.95C526.87,-62.96 546.43,-56.15 561,-45 572.16,-36.46 566.55,-25.52 579,-19 599.2,-8.41 624.59,-12.17 644.92,-18.57"/>
<polygon fill="black" stroke="black" points="643.85,-21.91 654.45,-21.87 646.15,-15.29 643.85,-21.91"/>
<text text-anchor="middle" x="599" y="-22.8" font-family="Times New Roman,serif" font-size="14.00">father</text>
</g>
<!-- Quackmore Duck&#45;&gt;Dumbella Duck Duck -->
<g id="edge35" class="edge">
<title>Quackmore Duck&#45;&gt;Dumbella Duck Duck</title>
<path fill="none" stroke="black" d="M312.54,-321.71C336.28,-317.98 364.06,-313.23 389,-308 394.36,-306.88 399.87,-305.65 405.41,-304.37"/>
<polygon fill="black" stroke="black" points="406.46,-307.72 415.39,-302.01 404.85,-300.91 406.46,-307.72"/>
<text text-anchor="middle" x="369" y="-318.8" font-family="Times New Roman,serif" font-size="14.00">father</text>
</g>
<!-- Quackmore Duck&#45;&gt;Helena spouch Duck -->
<g id="edge34" class="edge">
<title>Quackmore Duck&#45;&gt;Helena spouch Duck</title>
<path fill="none" stroke="black" d="M312.72,-314.98C319.69,-311.08 326.07,-306.17 331,-300 363.28,-259.58 311.63,-220.77 349,-185 364.48,-170.19 386.01,-164.05 407.29,-162.27"/>
<polygon fill="black" stroke="black" points="407.56,-165.77 417.36,-161.74 407.19,-158.78 407.56,-165.77"/>
<text text-anchor="middle" x="369" y="-188.8" font-family="Times New Roman,serif" font-size="14.00">father</text>
</g>
<!-- Quackmore Duck&#45;&gt;Dux Duck -->
<g id="edge15" class="edge">
<title>Quackmore Duck&#45;&gt;Dux Duck</title>
<path fill="none" stroke="black" d="M279.41,-348.15C297.48,-360.74 323.45,-376.54 349,-384 377.42,-392.3 410.65,-393.84 436.92,-393.28"/>
<polygon fill="black" stroke="black" points="437.1,-396.78 446.98,-392.96 436.87,-389.78 437.1,-396.78"/>
<text text-anchor="middle" x="369" y="-394.8" font-family="Times New Roman,serif" font-size="14.00">father</text>
</g>
<!-- Quackmore Duck&#45;&gt;Daisy Duck -->
<g id="edge37" class="edge">
<title>Quackmore Duck&#45;&gt;Daisy Duck</title>
<path fill="none" stroke="black" d="M312.65,-313.29C319.37,-309.66 325.71,-305.28 331,-300 346.25,-284.79 332.5,-268.85 349,-255 372.09,-235.63 405.18,-228.58 432.7,-226.39"/>
<polygon fill="black" stroke="black" points="433.17,-229.87 442.94,-225.78 432.75,-222.89 433.17,-229.87"/>
<text text-anchor="middle" x="369" y="-258.8" font-family="Times New Roman,serif" font-size="14.00">father</text>
</g>
<!-- Quackmore Duck&#45;&gt;Donald Fauntleroy Duck -->
<g id="edge32" class="edge">
<title>Quackmore Duck&#45;&gt;Donald Fauntleroy Duck</title>
<path fill="none" stroke="black" d="M271.96,-348.34C289.35,-366.61 318.46,-394.17 349,-410 363.74,-417.64 380.29,-423.63 396.6,-428.31"/>
<polygon fill="black" stroke="black" points="396.14,-431.81 406.71,-431.05 397.97,-425.05 396.14,-431.81"/>
<text text-anchor="middle" x="369" y="-428.8" font-family="Times New Roman,serif" font-size="14.00">father</text>
</g>
<!-- Fanny Goose Duck&#45;&gt;Gus Goose -->
<g id="edge19" class="edge">
<title>Fanny Goose Duck&#45;&gt;Gus Goose</title>
<path fill="none" stroke="black" d="M317.67,-18C354.03,-18 399.32,-18 433.29,-18"/>
<polygon fill="black" stroke="black" points="433.45,-21.5 443.45,-18 433.45,-14.5 433.45,-21.5"/>
<text text-anchor="middle" x="369" y="-21.8" font-family="Times New Roman,serif" font-size="14.00">mother</text>
</g>
<!-- Julious Gander -->
<g id="node23" class="node">
<title>Julious Gander</title>
<polygon fill="none" stroke="black" points="304.5,-484 204.5,-484 204.5,-448 304.5,-448 304.5,-484"/>
<text text-anchor="middle" x="254.5" y="-462.3" font-family="Times New Roman,serif" font-size="14.00">Julious Gander</text>
</g>
<!-- Julious Gander&#45;&gt;Gladstone Gander -->
<g id="edge28" class="edge">
<title>Julious Gander&#45;&gt;Gladstone Gander</title>
<path fill="none" stroke="black" d="M304.58,-475.28C336.56,-481.32 378.76,-489.3 414.08,-495.97"/>
<polygon fill="black" stroke="black" points="413.85,-499.49 424.33,-497.91 415.15,-492.61 413.85,-499.49"/>
<text text-anchor="middle" x="369" y="-493.8" font-family="Times New Roman,serif" font-size="14.00">father</text>
</g>
</g>
</svg>