<svg width="700px" height="542px"
 viewBox="0.00 0.00 465.05 360.00" xmlns="http://www.w3.org/2000/svg" xmlns:xlink="http://www.w3.org/1999/xlink">
<g id="graph0" class="graph" transform="scale(0.87 0.87) rotate(0.0) translate(4.0 410.18)">
<title>Baratheon</title>
<polygon fill="white" stroke="transparent" points="-4,4 -4,-410.18 531.04,-410.18 531.04,4 -4,4"/>
<!-- Steffon Baratheon -->
<g id="node1" class="node">
<title>Steffon Baratheon</title>
<polygon fill="none" stroke="black" points="120.7,-346.18 2.22,-346.18 2.22,-310.18 120.7,-310.18 120.7,-346.18"/>
<text text-anchor="middle" x="61.46" y="-323.98" font-family="Times,serif" font-size="14.00">Steffon Baratheon</text>
</g>
<!-- Stannis Baratheon -->
<g id="node2" class="node">
<title>Stannis Baratheon</title>
<polygon fill="none" stroke="black" points="316.95,-339.18 198.44,-339.18 198.44,-303.18 316.95,-303.18 316.95,-339.18"/>
<text text-anchor="middle" x="257.7" y="-316.98" font-family="Times,serif" font-size="14.00">Stannis Baratheon</text>
</g>
<!-- Steffon Baratheon&#45;&gt;Stannis Baratheon -->
<g id="edge1" class="edge">
<title>Steffon Baratheon&#45;&gt;Stannis Baratheon</title>
<path fill="none" stroke="black" d="M120.7,-323.47C127.51,-323.04 134.36,-322.66 140.91,-322.38 156.24,-321.74 172.71,-321.37 188.28,-321.17"/>
<polygon fill="black" stroke="black" points="188.41,-324.67 198.37,-321.07 188.33,-317.67 188.41,-324.67"/>
<text text-anchor="middle" x="160.74" y="-326.38" font-family="Times,serif" font-size="14.00">father</text>
</g>
<!-- Renly Baratheon -->
<g id="node4" class="node">
<title>Renly Baratheon</title>
<polygon fill="none" stroke="black" points="313.17,-406.18 202.22,-406.18 202.22,-370.18 313.17,-370.18 313.17,-406.18"/>
<text text-anchor="middle" x="257.7" y="-383.98" font-family="Times,serif" font-size="14.00">Renly Baratheon</text>
</g>
<!-- Steffon Baratheon&#45;&gt;Renly Baratheon -->
<g id="edge2" class="edge">
<title>Steffon Baratheon&#45;&gt;Renly Baratheon</title>
<path fill="none" stroke="black" d="M83.89,-346.36C98.85,-357.93 119.84,-372.03 140.91,-379.18 156.96,-384.63 174.96,-387.47 191.88,-388.82"/>
<polygon fill="black" stroke="black" points="192.06,-392.34 202.26,-389.49 192.5,-385.36 192.06,-392.34"/>
<text text-anchor="middle" x="160.74" y="-391.38" font-family="Times,serif" font-size="14.00">father</text>
</g>
<!-- Robert Baratheon -->
<g id="node5" class="node">
<title>Robert Baratheon</title>
<polygon fill="none" stroke="black" points="315.33,-219.18 200.06,-219.18 200.06,-183.18 315.33,-183.18 315.33,-219.18"/>
<text text-anchor="middle" x="257.7" y="-196.98" font-family="Times,serif" font-size="14.00">Robert Baratheon</text>
</g>
<!-- Steffon Baratheon&#45;&gt;Robert Baratheon -->
<g id="edge3" class="edge">
<title>Steffon Baratheon&#45;&gt;Robert Baratheon</title>
<path fill="none" stroke="black" d="M110.68,-310.01C115.04,-307.39 119.21,-304.46 122.91,-301.18 134.51,-290.94 129.98,-282.33 140.91,-271.38 160.11,-252.16 185.57,-235.98 207.73,-224.02"/>
<polygon fill="black" stroke="black" points="209.45,-227.07 216.68,-219.32 206.2,-220.87 209.45,-227.07"/>
<text text-anchor="middle" x="160.74" y="-276.38" font-family="Times,serif" font-size="14.00">father</text>
</g>
<!-- Shireen Baratheon -->
<g id="node3" class="node">
<title>Shireen Baratheon</title>
<polygon fill="none" stroke="black" points="519.56,-326.18 399.97,-326.18 399.97,-290.18 519.56,-290.18 519.56,-326.18"/>
<text text-anchor="middle" x="459.76" y="-303.98" font-family="Times,serif" font-size="14.00">Shireen Baratheon</text>
</g>
<!-- Stannis Baratheon&#45;&gt;Shireen Baratheon -->
<g id="edge4" class="edge">
<title>Stannis Baratheon&#45;&gt;Shireen Baratheon</title>
<path fill="none" stroke="black" d="M316.83,-317.41C339.65,-315.92 366.01,-314.21 389.78,-312.67"/>
<polygon fill="black" stroke="black" points="390.04,-316.16 399.79,-312.02 389.58,-309.17 390.04,-316.16"/>
<text text-anchor="middle" x="354.65" y="-320.38" font-family="Times,serif" font-size="14.00">father</text>
</g>
<!-- Tommen Baratheon -->
<g id="node6" class="node">
<title>Tommen Baratheon</title>
<polygon fill="none" stroke="black" points="523.34,-115.18 396.18,-115.18 396.18,-79.18 523.34,-79.18 523.34,-115.18"/>
<text text-anchor="middle" x="459.76" y="-92.98" font-family="Times,serif" font-size="14.00">Tommen Baratheon</text>
</g>
<!-- Robert Baratheon&#45;&gt;Tommen Baratheon -->
<g id="edge5" class="edge">
<title>Robert Baratheon&#45;&gt;Tommen Baratheon</title>
<path fill="none" stroke="black" d="M289.94,-183.05C303.62,-175.26 319.91,-166.18 334.82,-158.38 352.18,-149.31 357.48,-148.9 374.48,-139.18 382.83,-134.41 384.07,-131.85 392.48,-127.18 397.18,-124.58 402.14,-122.01 407.15,-119.54"/>
<polygon fill="black" stroke="black" points="408.67,-122.69 416.18,-115.22 405.65,-116.38 408.67,-122.69"/>
<text text-anchor="middle" x="354.65" y="-163.38" font-family="Times,serif" font-size="14.00">father</text>
</g>
<!-- Joffrey Baratheon -->
<g id="node7" class="node">
<title>Joffrey Baratheon</title>
<polygon fill="none" stroke="black" points="517.94,-55.18 401.59,-55.18 401.59,-19.18 517.94,-19.18 517.94,-55.18"/>
<text text-anchor="middle" x="459.76" y="-32.98" font-family="Times,serif" font-size="14.00">Joffrey Baratheon</text>
</g>
<!-- Robert Baratheon&#45;&gt;Joffrey Baratheon -->
<g id="edge6" class="edge">
<title>Robert Baratheon&#45;&gt;Joffrey Baratheon</title>
<path fill="none" stroke="black" d="M265.3,-182.98C275.89,-156.26 299.19,-106.52 334.82,-78.38 344.37,-70.85 367.66,-62.4 391.51,-55.12"/>
<polygon fill="black" stroke="black" points="392.78,-58.39 401.36,-52.19 390.78,-51.69 392.78,-58.39"/>
<text text-anchor="middle" x="354.65" y="-83.38" font-family="Times,serif" font-size="14.00">father</text>
</g>
<!-- Gendry -->
<g id="node8" class="node">
<title>Gendry</title>
<polygon fill="none" stroke="black" points="488.74,-259.18 430.78,-259.18 430.78,-223.18 488.74,-223.18 488.74,-259.18"/>
<text text-anchor="middle" x="459.76" y="-236.98" font-family="Times,serif" font-size="14.00">Gendry</text>
</g>
<!-- Robert Baratheon&#45;&gt;Gendry -->
<g id="edge7" class="edge">
<title>Robert Baratheon&#45;&gt;Gendry</title>
<path fill="none" stroke="black" d="M315.57,-215C322.05,-216.47 328.57,-217.89 334.82,-219.18 363.47,-225.11 396.05,-230.85 420.62,-234.99"/>
<polygon fill="black" stroke="black" points="420.18,-238.46 430.62,-236.65 421.33,-231.56 420.18,-238.46"/>
<text text-anchor="middle" x="354.65" y="-231.38" font-family="Times,serif" font-size="14.00">father</text>
</g>
<!-- Myrchella Baratheon -->
<g id="node9" class="node">
<title>Myrchella Baratheon</title>
<polygon fill="none" stroke="black" points="526.82,-172.18 392.7,-172.18 392.7,-136.18 526.82,-136.18 526.82,-172.18"/>
<text text-anchor="middle" x="459.76" y="-149.98" font-family="Times,serif" font-size="14.00">Myrchella Baratheon</text>
</g>
<!-- Robert Baratheon&#45;&gt;Myrchella Baratheon -->
<g id="edge8" class="edge">
<title>Robert Baratheon&#45;&gt;Myrchella Baratheon</title>
<path fill="none" stroke="black" d="M315.48,-191.57C334.34,-188.07 355.39,-183.82 374.48,-179.18 379.77,-177.9 385.21,-176.49 390.67,-175.02"/>
<polygon fill="black" stroke="black" points="391.78,-178.34 400.48,-172.3 389.91,-171.59 391.78,-178.34"/>
<text text-anchor="middle" x="354.65" y="-192.38" font-family="Times,serif" font-size="14.00">father</text>
</g>
<!-- Cassana Estermont -->
<g id="node10" class="node">
<title>Cassana Estermont</title>
<polygon fill="none" stroke="black" points="122.87,-292.18 0.04,-292.18 0.04,-256.18 122.87,-256.18 122.87,-292.18"/>
<text text-anchor="middle" x="61.46" y="-269.98" font-family="Times,serif" font-size="14.00">Cassana Estermont</text>
</g>
<!-- Cassana Estermont&#45;&gt;Stannis Baratheon -->
<g id="edge9" class="edge">
<title>Cassana Estermont&#45;&gt;Stannis Baratheon</title>
<path fill="none" stroke="black" d="M122.98,-287.02C141.5,-291.11 161.91,-295.77 180.57,-300.38 183.16,-301.02 185.8,-301.69 188.46,-302.37"/>
<polygon fill="black" stroke="black" points="187.61,-305.76 198.17,-304.89 189.37,-298.99 187.61,-305.76"/>
<text text-anchor="middle" x="160.74" y="-305.38" font-family="Times,serif" font-size="14.00">mother</text>
</g>
<!-- Cassana Estermont&#45;&gt;Renly Baratheon -->
<g id="edge10" class="edge">
<title>Cassana Estermont&#45;&gt;Renly Baratheon</title>
<path fill="none" stroke="black" d="M111.63,-292.36C115.7,-294.96 119.54,-297.89 122.91,-301.18 136.27,-314.25 127.42,-326.25 140.91,-339.18 145.81,-343.88 173.27,-355.57 200.21,-366.36"/>
<polygon fill="black" stroke="black" points="199.09,-369.68 209.68,-370.12 201.68,-363.18 199.09,-369.68"/>
<text text-anchor="middle" x="160.74" y="-361.38" font-family="Times,serif" font-size="14.00">mother</text>
</g>
<!-- Cassana Estermont&#45;&gt;Robert Baratheon -->
<g id="edge11" class="edge">
<title>Cassana Estermont&#45;&gt;Robert Baratheon</title>
<path fill="none" stroke="black" d="M75.69,-256.04C89.66,-238.56 113.43,-213.22 140.91,-202.38 156.17,-196.37 173.46,-194.06 189.93,-193.71"/>
<polygon fill="black" stroke="black" points="190.06,-197.22 200.06,-193.74 190.07,-190.22 190.06,-197.22"/>
<text text-anchor="middle" x="160.74" y="-207.38" font-family="Times,serif" font-size="14.00">mother</text>
</g>
<!-- Cersei Lannister -->
<g id="node11" class="node">
<title>Cersei Lannister</title>
<polygon fill="none" stroke="black" points="311.83,-59.18 203.57,-59.18 203.57,-23.18 311.83,-23.18 311.83,-59.18"/>
<text text-anchor="middle" x="257.7" y="-36.98" font-family="Times,serif" font-size="14.00">Cersei Lannister</text>
</g>
<!-- Cersei Lannister&#45;&gt;Tommen Baratheon -->
<g id="edge14" class="edge">
<title>Cersei Lannister&#45;&gt;Tommen Baratheon</title>
<path fill="none" stroke="black" d="M311.85,-32.47C332.31,-31.44 355.34,-33.25 374.48,-42.38 385.82,-47.8 382.64,-56.37 392.48,-64.18 396.99,-67.77 401.96,-71.11 407.08,-74.18"/>
<polygon fill="black" stroke="black" points="405.37,-77.23 415.8,-79.1 408.81,-71.14 405.37,-77.23"/>
<text text-anchor="middle" x="354.65" y="-47.38" font-family="Times,serif" font-size="14.00">mother</text>
</g>
<!-- Cersei Lannister&#45;&gt;Joffrey Baratheon -->
<g id="edge13" class="edge">
<title>Cersei Lannister&#45;&gt;Joffrey Baratheon</title>
<path fill="none" stroke="black" d="M286.37,-23.08C300.3,-15.03 317.8,-6.47 334.82,-2.38 362.74,4.32 393.84,-4.47 417.91,-14.88"/>
<polygon fill="black" stroke="black" points="416.55,-18.11 427.1,-19.09 419.46,-11.74 416.55,-18.11"/>
<text text-anchor="middle" x="354.65" y="-7.38" font-family="Times,serif" font-size="14.00">mother</text>
</g>
<!-- Cersei Lannister&#45;&gt;Myrchella Baratheon -->
<g id="edge12" class="edge">
<title>Cersei Lannister&#45;&gt;Myrchella Baratheon</title>
<path fill="none" stroke="black" d="M279.73,-59.35C294.51,-71.56 315.09,-87.51 334.82,-99.18 341.73,-103.27 376.46,-118.62 407.4,-132.06"/>
<polygon fill="black" stroke="black" points="406.28,-135.39 416.85,-136.16 409.07,-128.97 406.28,-135.39"/>
<text text-anchor="middle" x="354.65" y="-122.38" font-family="Times,serif" font-size="14.00">mother</text>
</g>
<!-- Selyse Baratheon -->
<g id="node12" class="node">
<title>Selyse Baratheon</title>
<polygon fill="none" stroke="black" points="314.28,-285.18 201.12,-285.18 201.12,-249.18 314.28,-249.18 314.28,-285.18"/>
<text text-anchor="middle" x="257.7" y="-262.98" font-family="Times,serif" font-size="14.00">Selyse Baratheon</text>
</g>
<!-- Selyse Baratheon&#45;&gt;Shireen Baratheon -->
<g id="edge15" class="edge">
<title>Selyse Baratheon&#45;&gt;Shireen Baratheon</title>
<path fill="none" stroke="black" d="M314.43,-278.6C337.8,-283.39 365.22,-289.01 389.84,-294.06"/>
<polygon fill="black" stroke="black" points="389.34,-297.53 399.84,-296.11 390.75,-290.67 389.34,-297.53"/>
<text text-anchor="middle" x="354.65" y="-294.38" font-family="Times,serif" font-size="14.00">mother</text>
</g>
</g>
</svg>
