<svg width="700px" height="655px"
 viewBox="0.00 0.00 384.72 360.00" xmlns="http://www.w3.org/2000/svg" xmlns:xlink="http://www.w3.org/1999/xlink">
<g id="graph0" class="graph" transform="scale(0.72 0.72) rotate(0.0) translate(4.0 498.11)">
<title>Baratheon</title>
<polygon fill="white" stroke="transparent" points="-4,4 -4,-498.11 532.58,-498.11 532.58,4 -4,4"/>
<!-- Robbert Baratheon -->
<g id="node1" class="node">
<title>Robbert Baratheon</title>
<polygon fill="none" stroke="black" points="122.59,-199.11 0.32,-199.11 0.32,-163.11 122.59,-163.11 122.59,-199.11"/>
<text text-anchor="middle" x="61.46" y="-176.91" font-family="Times,serif" font-size="14.00">Robbert Baratheon</text>
</g>
<!-- Joffrey Baratheon -->
<g id="node2" class="node">
<title>Joffrey Baratheon</title>
<polygon fill="none" stroke="black" points="324.02,-55.11 207.68,-55.11 207.68,-19.11 324.02,-19.11 324.02,-55.11"/>
<text text-anchor="middle" x="265.85" y="-32.91" font-family="Times,serif" font-size="14.00">Joffrey Baratheon</text>
</g>
<!-- Robbert Baratheon&#45;&gt;Joffrey Baratheon -->
<g id="edge1" class="edge">
<title>Robbert Baratheon&#45;&gt;Joffrey Baratheon</title>
<path fill="none" stroke="black" d="M71.88,-162.81C84.58,-139.88 109.3,-100.87 140.91,-78.31 150.77,-71.27 173.97,-62.94 197.66,-55.61"/>
<polygon fill="black" stroke="black" points="198.89,-58.89 207.45,-52.65 196.87,-52.19 198.89,-58.89"/>
<text text-anchor="middle" x="160.74" y="-83.31" font-family="Times,serif" font-size="14.00">father</text>
</g>
<!-- Myrchella Baratheon -->
<g id="node3" class="node">
<title>Myrchella Baratheon</title>
<polygon fill="none" stroke="black" points="332.91,-172.11 198.79,-172.11 198.79,-136.11 332.91,-136.11 332.91,-172.11"/>
<text text-anchor="middle" x="265.85" y="-149.91" font-family="Times,serif" font-size="14.00">Myrchella Baratheon</text>
</g>
<!-- Robbert Baratheon&#45;&gt;Myrchella Baratheon -->
<g id="edge2" class="edge">
<title>Robbert Baratheon&#45;&gt;Myrchella Baratheon</title>
<path fill="none" stroke="black" d="M122.81,-183.23C141.42,-183.04 161.92,-181.97 180.57,-179.11 187.62,-178.02 194.91,-176.5 202.11,-174.73"/>
<polygon fill="black" stroke="black" points="203.05,-178.11 211.85,-172.2 201.29,-171.33 203.05,-178.11"/>
<text text-anchor="middle" x="160.74" y="-187.31" font-family="Times,serif" font-size="14.00">father</text>
</g>
<!-- Tommen Baratheon -->
<g id="node4" class="node">
<title>Tommen Baratheon</title>
<polygon fill="none" stroke="black" points="329.43,-115.11 202.27,-115.11 202.27,-79.11 329.43,-79.11 329.43,-115.11"/>
<text text-anchor="middle" x="265.85" y="-92.91" font-family="Times,serif" font-size="14.00">Tommen Baratheon</text>
</g>
<!-- Robbert Baratheon&#45;&gt;Tommen Baratheon -->
<g id="edge3" class="edge">
<title>Robbert Baratheon&#45;&gt;Tommen Baratheon</title>
<path fill="none" stroke="black" d="M122.22,-163.06C141.28,-156.46 162.19,-148.32 180.57,-139.11 189.16,-134.8 190.16,-131.77 198.57,-127.11 203.26,-124.5 208.23,-121.93 213.24,-119.47"/>
<polygon fill="black" stroke="black" points="214.76,-122.62 222.27,-115.14 211.74,-116.3 214.76,-122.62"/>
<text text-anchor="middle" x="160.74" y="-160.31" font-family="Times,serif" font-size="14.00">father</text>
</g>
<!-- Gendry -->
<g id="node5" class="node">
<title>Gendry</title>
<polygon fill="none" stroke="black" points="294.83,-259.11 236.87,-259.11 236.87,-223.11 294.83,-223.11 294.83,-259.11"/>
<text text-anchor="middle" x="265.85" y="-236.91" font-family="Times,serif" font-size="14.00">Gendry</text>
</g>
<!-- Robbert Baratheon&#45;&gt;Gendry -->
<g id="edge4" class="edge">
<title>Robbert Baratheon&#45;&gt;Gendry</title>
<path fill="none" stroke="black" d="M122.63,-198.94C156.41,-208.96 197.51,-221.14 226.83,-229.83"/>
<polygon fill="black" stroke="black" points="226.1,-233.27 236.68,-232.75 228.09,-226.56 226.1,-233.27"/>
<text text-anchor="middle" x="160.74" y="-219.31" font-family="Times,serif" font-size="14.00">father</text>
</g>
<!-- Cersei Lannister -->
<g id="node6" class="node">
<title>Cersei Lannister</title>
<polygon fill="none" stroke="black" points="115.59,-59.11 7.33,-59.11 7.33,-23.11 115.59,-23.11 115.59,-59.11"/>
<text text-anchor="middle" x="61.46" y="-36.91" font-family="Times,serif" font-size="14.00">Cersei Lannister</text>
</g>
<!-- Cersei Lannister&#45;&gt;Joffrey Baratheon -->
<g id="edge5" class="edge">
<title>Cersei Lannister&#45;&gt;Joffrey Baratheon</title>
<path fill="none" stroke="black" d="M91.05,-22.99C105.42,-14.95 123.45,-6.39 140.91,-2.31 168.77,4.21 199.76,-4.49 223.78,-14.82"/>
<polygon fill="black" stroke="black" points="222.4,-18.04 232.95,-18.99 225.3,-11.67 222.4,-18.04"/>
<text text-anchor="middle" x="160.74" y="-7.31" font-family="Times,serif" font-size="14.00">mother</text>
</g>
<!-- Cersei Lannister&#45;&gt;Myrchella Baratheon -->
<g id="edge6" class="edge">
<title>Cersei Lannister&#45;&gt;Myrchella Baratheon</title>
<path fill="none" stroke="black" d="M84.22,-59.22C99.49,-71.41 120.71,-87.35 140.91,-99.11 153.89,-106.66 184.71,-120.34 212.37,-132.17"/>
<polygon fill="black" stroke="black" points="211.03,-135.4 221.6,-136.1 213.77,-128.96 211.03,-135.4"/>
<text text-anchor="middle" x="160.74" y="-122.31" font-family="Times,serif" font-size="14.00">mother</text>
</g>
<!-- Cersei Lannister&#45;&gt;Tommen Baratheon -->
<g id="edge7" class="edge">
<title>Cersei Lannister&#45;&gt;Tommen Baratheon</title>
<path fill="none" stroke="black" d="M115.79,-32.24C136.89,-31.09 160.77,-32.85 180.57,-42.31 191.91,-47.72 188.73,-56.29 198.57,-64.11 203.08,-67.69 208.05,-71.03 213.17,-74.11"/>
<polygon fill="black" stroke="black" points="211.46,-77.16 221.89,-79.02 214.9,-71.06 211.46,-77.16"/>
<text text-anchor="middle" x="160.74" y="-47.31" font-family="Times,serif" font-size="14.00">mother</text>
</g>
<!-- Cassana Estermont -->
<g id="node7" class="node">
<title>Cassana Estermont</title>
<polygon fill="none" stroke="black" points="122.87,-466.11 0.04,-466.11 0.04,-430.11 122.87,-430.11 122.87,-466.11"/>
<text text-anchor="middle" x="61.46" y="-443.91" font-family="Times,serif" font-size="14.00">Cassana Estermont</text>
</g>
<!-- Stannis Baratheon -->
<g id="node8" class="node">
<title>Stannis Baratheon</title>
<polygon fill="none" stroke="black" points="325.11,-313.11 206.6,-313.11 206.6,-277.11 325.11,-277.11 325.11,-313.11"/>
<text text-anchor="middle" x="265.85" y="-290.91" font-family="Times,serif" font-size="14.00">Stannis Baratheon</text>
</g>
<!-- Cassana Estermont&#45;&gt;Stannis Baratheon -->
<g id="edge8" class="edge">
<title>Cassana Estermont&#45;&gt;Stannis Baratheon</title>
<path fill="none" stroke="black" d="M76.49,-429.8C91.09,-411.68 115.34,-384.01 140.91,-365.31 156.72,-353.74 165.46,-358.56 180.57,-346.11 190.86,-337.63 188.01,-330.25 198.57,-322.11 200.33,-320.75 202.16,-319.45 204.06,-318.21"/>
<polygon fill="black" stroke="black" points="205.85,-321.22 212.68,-313.12 202.29,-315.19 205.85,-321.22"/>
<text text-anchor="middle" x="160.74" y="-369.31" font-family="Times,serif" font-size="14.00">mother</text>
</g>
<!-- Renly Baratheon -->
<g id="node10" class="node">
<title>Renly Baratheon</title>
<polygon fill="none" stroke="black" points="321.33,-494.11 210.38,-494.11 210.38,-458.11 321.33,-458.11 321.33,-494.11"/>
<text text-anchor="middle" x="265.85" y="-471.91" font-family="Times,serif" font-size="14.00">Renly Baratheon</text>
</g>
<!-- Cassana Estermont&#45;&gt;Renly Baratheon -->
<g id="edge9" class="edge">
<title>Cassana Estermont&#45;&gt;Renly Baratheon</title>
<path fill="none" stroke="black" d="M123.11,-462.94C129.1,-464.12 135.11,-465.21 140.91,-466.11 160.08,-469.06 181.06,-471.17 200.22,-472.67"/>
<polygon fill="black" stroke="black" points="200.13,-476.17 210.36,-473.42 200.64,-469.19 200.13,-476.17"/>
<text text-anchor="middle" x="160.74" y="-474.31" font-family="Times,serif" font-size="14.00">mother</text>
</g>
<!-- Robert Baratheon -->
<g id="node11" class="node">
<title>Robert Baratheon</title>
<polygon fill="none" stroke="black" points="323.49,-367.11 208.22,-367.11 208.22,-331.11 323.49,-331.11 323.49,-367.11"/>
<text text-anchor="middle" x="265.85" y="-344.91" font-family="Times,serif" font-size="14.00">Robert Baratheon</text>
</g>
<!-- Cassana Estermont&#45;&gt;Robert Baratheon -->
<g id="edge10" class="edge">
<title>Cassana Estermont&#45;&gt;Robert Baratheon</title>
<path fill="none" stroke="black" d="M122.88,-448.61C143.18,-445.93 164.68,-439.62 180.57,-426.11 198.56,-410.81 182.22,-393.15 198.57,-376.11 199.47,-375.17 200.4,-374.27 201.36,-373.4"/>
<polygon fill="black" stroke="black" points="203.51,-376.16 209.31,-367.29 199.25,-370.61 203.51,-376.16"/>
<text text-anchor="middle" x="160.74" y="-448.31" font-family="Times,serif" font-size="14.00">mother</text>
</g>
<!-- Shireen Baratheon -->
<g id="node9" class="node">
<title>Shireen Baratheon</title>
<polygon fill="none" stroke="black" points="528.48,-367.11 408.89,-367.11 408.89,-331.11 528.48,-331.11 528.48,-367.11"/>
<text text-anchor="middle" x="468.69" y="-344.91" font-family="Times,serif" font-size="14.00">Shireen Baratheon</text>
</g>
<!-- Stannis Baratheon&#45;&gt;Shireen Baratheon -->
<g id="edge11" class="edge">
<title>Stannis Baratheon&#45;&gt;Shireen Baratheon</title>
<path fill="none" stroke="black" d="M325.21,-310.8C348.32,-317.01 375.05,-324.2 399.07,-330.66"/>
<polygon fill="black" stroke="black" points="398.27,-334.06 408.83,-333.28 400.08,-327.3 398.27,-334.06"/>
<text text-anchor="middle" x="370.96" y="-331.31" font-family="Times,serif" font-size="14.00">father</text>
</g>
<!-- Selyse Baratheon -->
<g id="node12" class="node">
<title>Selyse Baratheon</title>
<polygon fill="none" stroke="black" points="322.43,-421.11 209.27,-421.11 209.27,-385.11 322.43,-385.11 322.43,-421.11"/>
<text text-anchor="middle" x="265.85" y="-398.91" font-family="Times,serif" font-size="14.00">Selyse Baratheon</text>
</g>
<!-- Selyse Baratheon&#45;&gt;Shireen Baratheon -->
<g id="edge12" class="edge">
<title>Selyse Baratheon&#45;&gt;Shireen Baratheon</title>
<path fill="none" stroke="black" d="M322.53,-388.13C346.2,-381.77 374.04,-374.28 398.98,-367.58"/>
<polygon fill="black" stroke="black" points="399.99,-370.93 408.74,-364.95 398.17,-364.17 399.99,-370.93"/>
<text text-anchor="middle" x="370.96" y="-383.31" font-family="Times,serif" font-size="14.00">mother</text>
</g>
<!-- Steffon Baratheon -->
<g id="node13" class="node">
<title>Steffon Baratheon</title>
<polygon fill="none" stroke="black" points="120.7,-346.11 2.22,-346.11 2.22,-310.11 120.7,-310.11 120.7,-346.11"/>
<text text-anchor="middle" x="61.46" y="-323.91" font-family="Times,serif" font-size="14.00">Steffon Baratheon</text>
</g>
<!-- Steffon Baratheon&#45;&gt;Stannis Baratheon -->
<g id="edge14" class="edge">
<title>Steffon Baratheon&#45;&gt;Stannis Baratheon</title>
<path fill="none" stroke="black" d="M120.88,-310.63C127.6,-308.99 134.38,-307.5 140.91,-306.31 158.76,-303.05 178.24,-300.72 196.36,-299.07"/>
<polygon fill="black" stroke="black" points="196.89,-302.53 206.55,-298.19 196.29,-295.56 196.89,-302.53"/>
<text text-anchor="middle" x="160.74" y="-311.31" font-family="Times,serif" font-size="14.00">father</text>
</g>
<!-- Steffon Baratheon&#45;&gt;Renly Baratheon -->
<g id="edge15" class="edge">
<title>Steffon Baratheon&#45;&gt;Renly Baratheon</title>
<path fill="none" stroke="black" d="M84.68,-346.27C99.98,-358.33 121.05,-374.1 140.91,-386.11 157.67,-396.24 165.55,-392.74 180.57,-405.31 191.01,-414.05 188.84,-420.58 198.57,-430.11 206.69,-438.06 216.33,-445.59 225.7,-452.17"/>
<polygon fill="black" stroke="black" points="223.94,-455.21 234.18,-457.93 227.87,-449.42 223.94,-455.21"/>
<text text-anchor="middle" x="160.74" y="-409.31" font-family="Times,serif" font-size="14.00">father</text>
</g>
<!-- Steffon Baratheon&#45;&gt;Robert Baratheon -->
<g id="edge13" class="edge">
<title>Steffon Baratheon&#45;&gt;Robert Baratheon</title>
<path fill="none" stroke="black" d="M120.6,-326.15C139.75,-326.19 161.13,-326.95 180.57,-329.31 186.31,-330 192.22,-330.93 198.13,-332.01"/>
<polygon fill="black" stroke="black" points="197.55,-335.47 208.03,-333.96 198.9,-328.6 197.55,-335.47"/>
<text text-anchor="middle" x="160.74" y="-334.31" font-family="Times,serif" font-size="14.00">father</text>
</g>
</g>
</svg>
